<svg width="23" height="17" viewBox="0 0 23 17" xmlns="http://www.w3.org/2000/svg">
<path d="M16.9747 17C16.9747 17 16.2653 16.1298 15.6744 15.3606C18.2535 14.6121 19.2389 12.952 19.2389 12.952C18.5305 13.4366 17.7709 13.8372 16.9747 14.1459C16.0582 14.5477 15.0997 14.8397 14.1182 15.0161C12.4321 15.3354 10.7029 15.3288 9.01908 14.9968C8.03015 14.7978 7.06095 14.5066 6.12355 14.1266C5.62958 13.9298 5.14924 13.6987 4.68588 13.4348C4.62665 13.3947 4.56877 13.374 4.50954 13.3338C4.47935 13.3192 4.45233 13.2985 4.43012 13.273C4.07609 13.071 3.87955 12.9299 3.87955 12.9299C3.87955 12.9299 4.82184 14.5485 7.32565 15.3177C6.7347 16.0869 6.00509 16.9972 6.00509 16.9972C1.65305 16.8589 0 13.9204 0 13.9204C0 7.4043 2.83495 2.12224 2.83495 2.12224C5.67125 -0.0636328 8.3689 -0.00276043 8.3689 -0.00276043L8.56543 0.239346C5.02107 1.29493 3.38687 2.89421 3.38687 2.89421C3.38687 2.89421 3.82032 2.65072 4.54858 2.30762C6.65527 1.3558 8.32986 1.09294 9.01908 1.03207C9.12896 1.00841 9.24069 0.99498 9.35292 0.991949C10.6725 0.814925 12.0079 0.800992 13.3307 0.950446C15.409 1.19314 17.4211 1.8511 19.2537 2.8873C19.2537 2.8873 17.6989 1.36548 14.3511 0.316819L14.6203 -0.00691065C14.6203 -0.00691065 17.3126 -0.067783 20.1529 2.11809C20.1529 2.11809 22.9892 7.40015 22.9892 13.9163C23 13.9232 21.3254 16.8547 16.9747 17ZM7.82102 7.54818C6.69835 7.54818 5.81259 8.56088 5.81259 9.79493C5.81259 11.029 6.71854 12.0417 7.82102 12.0417C8.9437 12.0417 9.82945 11.029 9.82945 9.79493C9.84964 8.56088 8.9437 7.54818 7.82102 7.54818ZM15.0094 7.54818C13.8867 7.54818 13.0009 8.56088 13.0009 9.79493C13.0009 11.029 13.9055 12.0417 15.0094 12.0417C16.1132 12.0417 17.0178 11.029 17.0178 9.79493C17.0178 8.56088 16.1307 7.54818 15.0094 7.54818Z" fill="#ffffff"/>
</svg>
