<svg width="96" height="95" viewBox="0 0 96 95" fill="none" xmlns="http://www.w3.org/2000/svg">
<path d="M0.829726 18.6374L77.3016 94.8608L96 76.2233L19.528 -0.000195757L0.829726 18.6374Z" fill="#EE2A7B"/>
<path d="M77.2993 0.00261175L0.827393 76.2261L19.5257 94.8636L95.9976 18.6402L77.2993 0.00261175Z" fill="#EE2A7B"/>
<path d="M38.1524 48.3119C38.2265 50.3821 38.9149 52.3838 40.1306 54.064C41.3462 55.7441 43.0344 57.0272 44.9817 57.7508C46.9289 58.4745 49.0478 58.6063 51.0702 58.1295C53.0927 57.6528 54.9278 56.5888 56.3435 55.0724C57.7593 53.5559 58.692 51.6549 59.0237 49.61C59.3554 47.5651 59.0713 45.4681 58.2071 43.5842C57.343 41.7002 55.9377 40.1141 54.1691 39.0263C52.4005 37.9386 50.3479 37.3981 48.271 37.4732C45.4875 37.5739 42.858 38.7722 40.9606 40.8046C39.0632 42.8371 38.0531 45.5374 38.1524 48.3119Z" fill="#010101"/>
<path d="M48.5915 55.2839C52.6891 55.2839 56.0109 51.9729 56.0109 47.8885C56.0109 43.8042 52.6891 40.4932 48.5915 40.4932C44.4938 40.4932 41.172 43.8042 41.172 47.8885C41.172 51.9729 44.4938 55.2839 48.5915 55.2839Z" fill="white"/>
<path d="M48.5913 52.2986C51.0353 52.2986 53.0165 50.3239 53.0165 47.8878C53.0165 45.4518 51.0353 43.4771 48.5913 43.4771C46.1474 43.4771 44.1661 45.4518 44.1661 47.8878C44.1661 50.3239 46.1474 52.2986 48.5913 52.2986Z" fill="#010101"/>
<path d="M36.4015 47.8802C37.1069 41.6343 42.295 36.7847 48.5938 36.7847C54.8926 36.7847 60.0832 41.6393 60.7837 47.8877C55.4179 46.5537 46.1298 45.1599 36.4015 47.8802Z" fill="#552267"/>
<path d="M51.6906 49.937C52.4947 49.937 53.1465 49.2873 53.1465 48.4858C53.1465 47.6844 52.4947 47.0347 51.6906 47.0347C50.8866 47.0347 50.2347 47.6844 50.2347 48.4858C50.2347 49.2873 50.8866 49.937 51.6906 49.937Z" fill="white"/>
<path d="M49.0618 48.0572C49.3477 48.0572 49.5796 47.8261 49.5796 47.541C49.5796 47.256 49.3477 47.0249 49.0618 47.0249C48.7758 47.0249 48.5439 47.256 48.5439 47.541C48.5439 47.8261 48.7758 48.0572 49.0618 48.0572Z" fill="white"/>
</svg>
