<svg width="322" height="36" viewBox="0 0 322 36" fill="none" xmlns="http://www.w3.org/2000/svg">
<g clip-path="url(#clip0_3_2046)">
<path d="M88.6228 0V10.6546H88.7402C89.3773 9.54076 90.3282 8.63892 91.4745 8.06141C92.4816 7.54524 93.5939 7.26733 94.7256 7.24913C96.2301 7.24913 97.4646 7.45383 98.4292 7.86323C99.3256 8.22045 100.112 8.80781 100.708 9.56595C101.291 10.3531 101.69 11.2598 101.879 12.2205C102.112 13.3602 102.224 14.5213 102.214 15.6846V28.2791H96.5886V16.7146C96.5886 15.0268 96.3242 13.766 95.7953 12.9323C95.2647 12.0949 94.329 11.6846 92.98 11.6846C91.4494 11.6846 90.3378 12.1396 89.6535 13.0523C88.9692 13.9651 88.6228 15.4613 88.6228 17.5464V28.2791H82.9949V0H88.6228Z" fill="white"/>
<path d="M118.265 28.2792V25.4209H118.145C117.504 26.5409 116.537 27.4388 115.372 27.9945C114.281 28.5121 113.09 28.7828 111.883 28.7872C110.622 28.8286 109.365 28.6267 108.18 28.1927C107.283 27.8497 106.495 27.271 105.901 26.5179C105.317 25.7314 104.917 24.8244 104.73 23.8633C104.497 22.7236 104.385 21.5625 104.395 20.3992V7.80469H110.02V19.3692C110.02 21.0571 110.285 22.3178 110.813 23.1515C111.342 23.9852 112.28 24.4011 113.626 24.3992C115.159 24.3992 116.268 23.9433 116.955 23.0315C117.642 22.1196 117.986 20.6216 117.986 18.5374V7.80469H123.614V28.2792H118.265Z" fill="white"/>
<path d="M131.261 7.80457V10.5764H131.342C132.033 9.56395 132.948 8.72358 134.015 8.11998C135.116 7.52588 136.351 7.22589 137.601 7.24908C138.825 7.23363 140.037 7.49111 141.149 8.00275C142.217 8.50147 143.03 9.3854 143.587 10.6545C144.247 9.70636 145.089 8.89888 146.064 8.27909C147.168 7.57536 148.456 7.21673 149.765 7.24908C150.783 7.24001 151.798 7.37343 152.779 7.64546C153.656 7.88406 154.469 8.31721 155.156 8.91272C155.846 9.53717 156.376 10.3184 156.7 11.1905C157.097 12.2742 157.286 13.4227 157.259 14.5764V28.2791H151.631V16.6755C151.631 15.9888 151.605 15.3421 151.553 14.7355C151.515 14.1831 151.367 13.644 151.117 13.15C150.877 12.7001 150.512 12.3288 150.067 12.0809C149.483 11.7904 148.835 11.6539 148.184 11.6845C147.514 11.6559 146.849 11.8134 146.263 12.1395C145.784 12.4311 145.387 12.8405 145.112 13.3286C144.823 13.8474 144.634 14.4153 144.553 15.0034C144.459 15.6261 144.412 16.2551 144.414 16.8848V28.2903H138.786V16.7927C138.786 16.1879 138.773 15.5878 138.747 14.9923C138.726 14.4294 138.611 13.8738 138.409 13.3482C138.214 12.8514 137.869 12.4284 137.42 12.1395C136.956 11.8381 136.275 11.6845 135.378 11.6845C135.022 11.6988 134.669 11.7589 134.328 11.8632C133.863 11.9974 133.432 12.2265 133.06 12.5359C132.606 12.9257 132.247 13.4135 132.01 13.9623C131.69 14.7337 131.542 15.5649 131.574 16.3991V28.2791H125.946V7.80457H131.261Z" fill="white"/>
<path d="M159.359 14.1018C159.389 12.9368 159.731 11.8011 160.351 10.8136C160.919 9.95329 161.678 9.23508 162.568 8.71454C163.509 8.17501 164.533 7.79755 165.599 7.59801C166.715 7.37307 167.851 7.25993 168.99 7.26025C170.037 7.26148 171.083 7.33422 172.121 7.47798C173.123 7.6078 174.099 7.89513 175.011 8.32934C175.86 8.73219 176.596 9.33816 177.154 10.0935C177.712 10.8378 177.991 11.8343 177.991 13.083V23.7348C177.989 24.6221 178.042 25.5087 178.151 26.3894C178.202 27.0551 178.392 27.7026 178.709 28.2903H173.003C172.896 27.9722 172.81 27.6478 172.743 27.3189C172.678 26.986 172.632 26.6495 172.606 26.3112C171.736 27.2245 170.644 27.8975 169.436 28.2651C168.229 28.6343 166.973 28.8225 165.71 28.8234C164.787 28.83 163.867 28.7098 162.976 28.4661C162.164 28.2471 161.404 27.8674 160.742 27.3496C160.102 26.833 159.595 26.1719 159.261 25.4208C158.887 24.5594 158.705 23.6268 158.728 22.688C158.689 21.6943 158.901 20.7068 159.342 19.8157C159.719 19.0974 160.262 18.4793 160.926 18.0125C161.607 17.5503 162.363 17.2094 163.16 17.0048C163.988 16.7796 164.827 16.6007 165.674 16.4689C166.518 16.3386 167.35 16.2326 168.171 16.1507C168.905 16.0855 169.633 15.9671 170.35 15.7962C170.897 15.6783 171.411 15.441 171.855 15.1011C172.043 14.9391 172.188 14.7336 172.279 14.5024C172.369 14.2713 172.401 14.0216 172.372 13.7753C172.395 13.2759 172.292 12.7788 172.073 12.3293C171.888 11.9843 171.614 11.6951 171.28 11.4919C170.927 11.286 170.537 11.1513 170.132 11.0956C169.669 11.0293 169.203 10.9966 168.735 10.9979C167.618 10.9979 166.747 11.2351 166.121 11.7097C165.487 12.187 165.116 12.9769 165.004 14.0879L159.359 14.1018ZM172.358 18.2582C172.097 18.4828 171.793 18.6519 171.464 18.755C171.088 18.8786 170.705 18.9775 170.316 19.0509C169.906 19.1319 169.478 19.1961 169.029 19.2491C168.579 19.3021 168.129 19.3691 167.68 19.4473C167.258 19.5253 166.842 19.6317 166.434 19.7655C166.05 19.8839 165.688 20.064 165.361 20.2986C165.058 20.5251 164.808 20.8158 164.63 21.15C164.43 21.5558 164.334 22.0046 164.35 22.4563C164.337 22.8954 164.433 23.331 164.63 23.7236C164.804 24.0558 165.063 24.336 165.381 24.5359C165.724 24.7441 166.103 24.8852 166.498 24.9518C166.929 25.0332 167.367 25.0733 167.805 25.0718C168.922 25.0718 169.76 24.8876 170.38 24.5136C170.937 24.195 171.401 23.7383 171.729 23.1877C172.008 22.7055 172.189 22.1735 172.263 21.6217C172.322 21.2017 172.355 20.7785 172.364 20.3545L172.358 18.2582Z" fill="white"/>
<path d="M185.594 7.80451V10.6545H185.711C186.356 9.53285 187.322 8.62973 188.485 8.06131C189.571 7.53122 190.764 7.25354 191.973 7.24902C193.48 7.24902 194.715 7.45373 195.68 7.86312C196.575 8.22112 197.36 8.80838 197.956 9.56585C198.539 10.3523 198.939 11.2594 199.126 12.2204C199.36 13.36 199.474 14.5211 199.464 15.6845V28.279H193.836V16.7145C193.836 15.0266 193.572 13.7659 193.043 12.9322C192.514 12.0985 191.577 11.6826 190.23 11.6845C188.696 11.6845 187.586 12.1404 186.901 13.0522C186.216 13.9641 185.872 15.4621 185.871 17.5463V28.279H180.243V7.80451H185.594Z" fill="white"/>
<path d="M215.242 0V10.3001H215.32C215.99 9.25767 216.965 8.44752 218.113 7.98046C219.275 7.49667 220.522 7.24809 221.781 7.24913C222.868 7.25411 223.942 7.48555 224.934 7.92867C225.927 8.3718 226.816 9.01689 227.545 9.82275C228.411 10.7998 229.076 11.9381 229.5 13.1724C230.502 16.3291 230.502 19.7183 229.5 22.8751C229.076 24.1096 228.412 25.2481 227.545 26.2247C226.817 27.0317 225.928 27.6778 224.935 28.1215C223.943 28.5652 222.868 28.7966 221.781 28.8011C220.4 28.8229 219.028 28.5804 217.739 28.0865C216.576 27.637 215.618 26.7783 215.044 25.672H214.963V28.2847H209.614V0H215.242ZM224.356 15.5673C224.191 14.8218 223.896 14.1111 223.484 13.4682C223.107 12.878 222.599 12.3831 221.998 12.0223C221.336 11.6704 220.598 11.4864 219.848 11.4864C219.098 11.4864 218.359 11.6704 217.697 12.0223C217.089 12.3792 216.573 12.8746 216.192 13.4682C215.78 14.1111 215.485 14.8218 215.32 15.5673C215.132 16.3848 215.038 17.2212 215.041 18.06C215.04 18.8868 215.133 19.711 215.32 20.5164C215.485 21.262 215.78 21.9726 216.192 22.6155C216.574 23.2084 217.089 23.7037 217.697 24.0614C218.359 24.4133 219.098 24.5974 219.848 24.5974C220.598 24.5974 221.336 24.4133 221.998 24.0614C222.598 23.6999 223.107 23.2051 223.484 22.6155C223.896 21.9726 224.191 21.262 224.356 20.5164C224.543 19.711 224.636 18.8868 224.635 18.06C224.638 17.2212 224.544 16.3848 224.356 15.5673V15.5673Z" fill="white"/>
<path d="M237.745 23.3692C238.583 24.1871 239.807 24.5974 241.376 24.5974C242.419 24.6244 243.444 24.3269 244.309 23.7461C245.128 23.1766 245.63 22.5755 245.815 21.9428H250.769C249.976 24.3992 248.76 26.155 247.122 27.2101C245.483 28.2652 243.502 28.7937 241.178 28.7956C239.689 28.8168 238.209 28.5544 236.818 28.0224C235.574 27.5402 234.451 26.7891 233.531 25.8228C232.612 24.8413 231.904 23.6824 231.45 22.4174C230.947 21.0202 230.699 19.5446 230.715 18.0601C230.703 16.6005 230.959 15.1511 231.47 13.7837C231.938 12.5107 232.664 11.3477 233.601 10.3667C234.539 9.38565 235.668 8.60767 236.919 8.08101C238.266 7.51104 239.716 7.22592 241.178 7.24361C242.757 7.20687 244.321 7.55361 245.736 8.25408C246.996 8.89812 248.088 9.82716 248.926 10.9673C249.772 12.1323 250.385 13.4498 250.73 14.8472C251.102 16.3354 251.236 17.8728 251.127 19.4027H236.343C236.438 21.2301 236.906 22.5523 237.745 23.3692ZM244.105 12.5946C243.433 11.8503 242.409 11.4781 241.033 11.4781C240.263 11.4528 239.497 11.6087 238.798 11.9331C238.247 12.203 237.76 12.5886 237.371 13.0636C237.028 13.4848 236.772 13.9695 236.617 14.4899C236.483 14.9278 236.397 15.3789 236.36 15.8354H245.516C245.253 14.4099 244.785 13.3297 244.111 12.5946H244.105Z" fill="white"/>
<path d="M252.532 4.63643V0H258.16V4.63643H252.532ZM258.16 7.80461V28.2791H252.532V7.80461H258.16Z" fill="white"/>
<path d="M265.846 7.80451V10.6545H265.966C266.61 9.53167 267.576 8.62816 268.74 8.06131C269.826 7.53122 271.019 7.25354 272.228 7.24902C273.733 7.24902 274.967 7.45373 275.932 7.86312C276.827 8.22173 277.613 8.80884 278.211 9.56585C278.793 10.353 279.193 11.2597 279.381 12.2204C279.614 13.3601 279.727 14.5212 279.716 15.6845V28.279H274.091V16.7145C274.091 15.0266 273.827 13.7659 273.298 12.9322C272.767 12.0948 271.832 11.6845 270.483 11.6845C268.952 11.6845 267.842 12.1404 267.153 13.0522C266.464 13.9641 266.122 15.4621 266.126 17.5463V28.279H260.498V7.80451H265.846Z" fill="white"/>
<path d="M301.256 29.7838C301.016 30.8683 300.52 31.8798 299.809 32.7342C298.934 33.7453 297.836 34.5385 296.6 35.051C295.198 35.6837 293.322 36.001 290.972 36.0029C289.937 35.9991 288.905 35.8727 287.9 35.6261C286.893 35.3902 285.929 34.9964 285.045 34.4593C284.196 33.9374 283.467 33.242 282.906 32.4188C282.319 31.5279 281.984 30.4949 281.937 29.4293H287.523C287.787 30.4844 288.303 31.2167 289.07 31.6261C289.89 32.0486 290.802 32.2597 291.724 32.2401C293.31 32.2401 294.466 31.7647 295.193 30.8138C295.919 29.8629 296.269 28.6616 296.243 27.2101V24.5165H296.162C295.579 25.5753 294.669 26.4167 293.567 26.9143C292.455 27.4257 291.244 27.6886 290.02 27.6847C288.657 27.7182 287.304 27.4403 286.065 26.8724C284.99 26.3608 284.053 25.6011 283.33 24.6561C282.596 23.6744 282.065 22.5567 281.766 21.3679C281.429 20.0681 281.263 18.73 281.272 17.3874C281.263 16.0927 281.452 14.8042 281.831 13.566C282.184 12.3898 282.752 11.2891 283.506 10.3197C284.25 9.38267 285.19 8.62033 286.26 8.08663C287.438 7.5117 288.735 7.22468 290.045 7.24922C291.27 7.22231 292.484 7.48033 293.592 8.00289C294.68 8.5718 295.57 9.45506 296.148 10.5374H296.229V7.80471H301.577V26.9729C301.567 27.9184 301.46 28.8603 301.256 29.7838V29.7838ZM293.547 22.9729C294.138 22.6694 294.653 22.2361 295.053 21.7056C295.456 21.163 295.758 20.5522 295.944 19.9024C296.145 19.2142 296.245 18.5007 296.243 17.7838C296.246 16.9794 296.166 16.1769 296.005 15.3888C295.863 14.6795 295.595 14.0015 295.212 13.3874C294.847 12.8077 294.343 12.3281 293.746 11.9917C293.037 11.6243 292.245 11.4464 291.447 11.4753C290.737 11.4562 290.034 11.6196 289.405 11.9498C288.839 12.2677 288.351 12.7084 287.978 13.2395C287.583 13.8005 287.299 14.4314 287.14 15.0985C286.965 15.8185 286.878 16.5571 286.88 17.2981C286.88 18.0357 286.953 18.7716 287.098 19.4949C287.231 20.1858 287.487 20.8476 287.852 21.4488C288.202 22.0246 288.68 22.5119 289.249 22.8724C289.906 23.2645 290.663 23.4584 291.427 23.4307C292.161 23.4533 292.889 23.2962 293.547 22.9729V22.9729Z" fill="white"/>
<path d="M308.744 23.1878C308.985 23.6118 309.317 23.977 309.716 24.2568C310.131 24.5422 310.593 24.7502 311.082 24.8709C311.607 25.0037 312.147 25.0703 312.688 25.0691C313.108 25.0661 313.526 25.0193 313.937 24.9296C314.353 24.8446 314.754 24.6978 315.126 24.4941C315.479 24.2997 315.783 24.0288 316.017 23.7014C316.266 23.3341 316.392 22.897 316.375 22.4536C316.375 21.6106 315.816 20.977 314.699 20.5527C313.166 20.0188 311.597 19.5953 310.004 19.2854C309.186 19.0994 308.388 18.8816 307.608 18.6323C306.87 18.4022 306.17 18.0685 305.527 17.6414C304.927 17.2444 304.426 16.7166 304.06 16.0977C303.669 15.4038 303.476 14.616 303.502 13.82C303.502 12.5006 303.76 11.4185 304.275 10.5737C304.774 9.74337 305.477 9.05439 306.317 8.57227C307.202 8.06912 308.166 7.72077 309.169 7.54226C310.241 7.34304 311.329 7.24398 312.42 7.24638C313.504 7.244 314.586 7.3506 315.649 7.56459C316.636 7.75246 317.582 8.11447 318.442 8.63367C319.264 9.13752 319.962 9.82076 320.483 10.6323C321.064 11.585 321.398 12.667 321.455 13.7809H316.104C316.026 12.6979 315.616 11.9656 314.875 11.5841C314.063 11.1848 313.166 10.9875 312.261 11.0091C311.916 11.0106 311.572 11.0301 311.23 11.0677C310.882 11.1015 310.541 11.1881 310.219 11.3245C309.92 11.4538 309.655 11.6507 309.445 11.8996C309.206 12.2369 309.098 12.6502 309.142 13.0616C309.186 13.4729 309.38 13.8539 309.686 14.1326C310.113 14.4811 310.604 14.7427 311.132 14.903C311.801 15.1212 312.482 15.3002 313.171 15.439C313.937 15.5981 314.719 15.7684 315.509 15.9526C316.32 16.1363 317.121 16.3618 317.908 16.6281C318.65 16.8727 319.351 17.2265 319.989 17.6776C320.589 18.1066 321.089 18.6597 321.455 19.2994C321.848 20.0363 322.04 20.8629 322.014 21.6972C322.068 22.8045 321.824 23.9061 321.308 24.8877C320.793 25.8693 320.024 26.6952 319.081 27.2799C318.166 27.8528 317.151 28.2495 316.09 28.4494C314.961 28.6742 313.814 28.7874 312.663 28.7872C311.491 28.7885 310.322 28.6688 309.174 28.4299C308.101 28.2174 307.075 27.8147 306.144 27.2408C305.258 26.6858 304.511 25.934 303.963 25.044C303.359 24.0019 303.038 22.8203 303.033 21.6162H308.381C308.36 22.163 308.485 22.7056 308.744 23.1878V23.1878Z" fill="white"/>
<path d="M5.36542 7.77946V10.6266H5.48272C6.12675 9.50437 7.0929 8.60104 8.25619 8.03347C9.3429 7.50339 10.5355 7.22571 11.7447 7.22119C13.2511 7.22119 14.4865 7.42589 15.451 7.83529C16.3467 8.1939 17.1325 8.78101 17.7302 9.53801C18.3116 10.3253 18.7104 11.2321 18.8976 12.1926C19.1267 13.3309 19.2353 14.4901 19.2216 15.6511V28.2456H13.5937V16.6894C13.5937 14.9997 13.3293 13.739 12.8005 12.9072C12.2716 12.0754 11.3341 11.6594 9.98788 11.6594C8.45357 11.6594 7.34381 12.1154 6.65859 13.0272C5.97337 13.939 5.62982 15.4371 5.62796 17.5213V28.254H0V7.77946H5.36542Z" fill="white"/>
<path d="M50.7912 7.77946V10.6266H50.9113C51.5539 9.50318 52.5204 8.59946 53.6848 8.03347C54.7715 7.50339 55.9641 7.22571 57.1733 7.22119C58.6797 7.22119 59.9142 7.42589 60.8768 7.83529C61.7733 8.19251 62.5594 8.77987 63.156 9.53801C63.7383 10.3251 64.1381 11.2319 64.3262 12.1926C64.559 13.3305 64.6714 14.4897 64.6614 15.6511V28.2456H59.0362V16.6894C59.0362 14.9997 58.7718 13.739 58.243 12.9072C57.7123 12.0698 56.7767 11.6594 55.4276 11.6594C53.8971 11.6594 52.7854 12.1144 52.1012 13.0272C51.4169 13.94 51.0705 15.4361 51.0705 17.5213V28.254H45.4426V7.77946H50.7912Z" fill="white"/>
<path d="M80.0008 15.8298V20.6756H67.5522V15.8298H80.0008Z" fill="white"/>
<path d="M20.6656 18.9171C20.7489 21.2346 21.5181 23.4753 22.8758 25.3559C24.2335 27.2365 26.1188 28.6724 28.2932 29.4821C30.4676 30.2917 32.8335 30.4387 35.0915 29.9044C37.3495 29.3701 39.3982 28.1785 40.9785 26.4805C42.5588 24.7824 43.5997 22.654 43.9695 20.3647C44.3393 18.0753 44.0215 15.7277 43.0562 13.6189C42.0909 11.5101 40.5214 9.73477 38.5464 8.51748C36.5714 7.30019 34.2795 6.69563 31.9606 6.78027C28.8527 6.89371 25.9171 8.2359 23.799 10.5118C21.681 12.7877 20.5539 15.811 20.6656 18.9171V18.9171Z" fill="white"/>
<path d="M32.5 26C36.6421 26 40 22.6421 40 18.5C40 14.3579 36.6421 11 32.5 11C28.3579 11 25 14.3579 25 18.5C25 22.6421 28.3579 26 32.5 26Z" fill="#010101"/>
<path d="M37 18C38.6569 18 40 16.6569 40 15C40 13.3431 38.6569 12 37 12C35.3431 12 34 13.3431 34 15C34 16.6569 35.3431 18 37 18Z" fill="white"/>
</g>
<defs>
<clipPath id="clip0_3_2046">
<rect width="322" height="36" fill="white"/>
</clipPath>
</defs>
</svg>
