<svg width="23" height="20" viewBox="0 0 23 20" xmlns="http://www.w3.org/2000/svg">
<path d="M23 2.35177C22.1385 2.7553 21.2249 3.01951 20.2898 3.1356C21.2738 2.50973 22.0109 1.52591 22.3644 0.366548C21.438 0.95121 20.4243 1.36286 19.3672 1.58362C18.6562 0.777163 17.7148 0.242564 16.6888 0.0627514C15.6628 -0.117061 14.6097 0.0679655 13.6928 0.589128C12.7758 1.11029 12.0464 1.93846 11.6175 2.94516C11.1887 3.95186 11.0845 5.08082 11.321 6.1569C9.44578 6.05668 7.61137 5.53847 5.93686 4.63593C4.26235 3.73339 2.78516 2.4667 1.60119 0.918078C0.997451 2.02257 0.812404 3.33003 1.08371 4.57438C1.35501 5.81874 2.06228 6.90648 3.06157 7.61625C2.31187 7.58867 1.57913 7.37176 0.923969 6.98349V7.04619C0.922142 8.20541 1.29815 9.32953 1.98806 10.2274C2.67797 11.1253 3.63921 11.7416 4.70836 11.9715C4.01338 12.1715 3.28465 12.2008 2.57746 12.057C2.88001 13.0522 3.46738 13.9222 4.2576 14.5456C5.04782 15.169 6.00146 15.5147 6.98542 15.5343C5.3141 16.9286 3.24989 17.6846 1.12512 17.6806C0.749128 17.6804 0.373457 17.6571 0 17.6108C2.1577 19.0841 4.66883 19.8663 7.23351 19.8639C15.9127 19.8639 20.6586 12.2223 20.6586 5.5954C20.6586 5.37877 20.6586 5.16785 20.6452 4.94696C21.5688 4.23776 22.3659 3.35889 22.9987 2.35177H23Z" fill="white"/>
</svg>
